<mxfile host="app.diagrams.net" modified="2022-05-08T05:49:38.821Z" agent="5.0 (Windows NT 10.0; Win64; x64) AppleWebKit/537.36 (KHTML, like Gecko) Chrome/100.0.4896.127 Safari/537.36" etag="-02tLAB6jhBu3PxeFtJq" version="18.0.1" type="github">
  <diagram id="C5RBs43oDa-KdzZeNtuy" name="Page-1">
    <mxGraphModel dx="2557" dy="1984" grid="1" gridSize="10" guides="1" tooltips="1" connect="1" arrows="1" fold="1" page="1" pageScale="1" pageWidth="827" pageHeight="1169" math="0" shadow="0">
      <root>
        <mxCell id="WIyWlLk6GJQsqaUBKTNV-0" />
        <mxCell id="WIyWlLk6GJQsqaUBKTNV-1" parent="WIyWlLk6GJQsqaUBKTNV-0" />
        <mxCell id="qosPAv3kta5eRP6_lkoC-4" value="" style="whiteSpace=wrap;html=1;fillColor=none;strokeColor=#CCCCCC;strokeWidth=2;" vertex="1" parent="WIyWlLk6GJQsqaUBKTNV-1">
          <mxGeometry x="-790" y="-1160" width="270" height="150" as="geometry" />
        </mxCell>
        <mxCell id="2Ez0OJCMwSesqM6kdLIF-56" value="" style="whiteSpace=wrap;html=1;fillColor=none;dashed=1;strokeColor=#006600;strokeWidth=2;opacity=50;" parent="WIyWlLk6GJQsqaUBKTNV-1" vertex="1">
          <mxGeometry x="-210" y="-1000" width="160" height="250" as="geometry" />
        </mxCell>
        <mxCell id="2Ez0OJCMwSesqM6kdLIF-14" value="" style="whiteSpace=wrap;html=1;fillColor=none;dashed=1;strokeColor=#CCCCCC;strokeWidth=2;" parent="WIyWlLk6GJQsqaUBKTNV-1" vertex="1">
          <mxGeometry x="-590" y="-1000" width="350" height="250" as="geometry" />
        </mxCell>
        <mxCell id="WIyWlLk6GJQsqaUBKTNV-3" value="Password Brute force" style="rounded=0;whiteSpace=wrap;html=1;fontSize=12;glass=0;strokeWidth=1;shadow=0;fillColor=#f8cecc;strokeColor=#b85450;" parent="WIyWlLk6GJQsqaUBKTNV-1" vertex="1">
          <mxGeometry x="-790" y="-960" width="130" height="40" as="geometry" />
        </mxCell>
        <mxCell id="2Ez0OJCMwSesqM6kdLIF-11" style="edgeStyle=none;shape=connector;rounded=0;orthogonalLoop=1;jettySize=auto;html=1;labelBackgroundColor=default;fontFamily=Helvetica;fontSize=11;fontColor=default;endArrow=classic;strokeColor=#FF0000;" parent="WIyWlLk6GJQsqaUBKTNV-1" source="WIyWlLk6GJQsqaUBKTNV-7" target="WIyWlLk6GJQsqaUBKTNV-12" edge="1">
          <mxGeometry relative="1" as="geometry" />
        </mxCell>
        <mxCell id="WIyWlLk6GJQsqaUBKTNV-7" value="Gain access to decomissioned windows 2003 server" style="rounded=0;whiteSpace=wrap;html=1;fontSize=12;glass=0;strokeWidth=1;shadow=0;fillColor=#f8cecc;strokeColor=#b85450;" parent="WIyWlLk6GJQsqaUBKTNV-1" vertex="1">
          <mxGeometry x="-560" y="-965" width="120" height="50" as="geometry" />
        </mxCell>
        <mxCell id="2Ez0OJCMwSesqM6kdLIF-53" style="edgeStyle=elbowEdgeStyle;shape=connector;rounded=0;orthogonalLoop=1;jettySize=auto;html=1;entryX=0;entryY=0.5;entryDx=0;entryDy=0;labelBackgroundColor=default;fontFamily=Helvetica;fontSize=11;fontColor=default;endArrow=classic;strokeColor=default;" parent="WIyWlLk6GJQsqaUBKTNV-1" source="WIyWlLk6GJQsqaUBKTNV-12" target="2Ez0OJCMwSesqM6kdLIF-39" edge="1">
          <mxGeometry relative="1" as="geometry" />
        </mxCell>
        <mxCell id="2Ez0OJCMwSesqM6kdLIF-72" style="edgeStyle=elbowEdgeStyle;shape=connector;rounded=0;orthogonalLoop=1;jettySize=auto;html=1;entryX=0;entryY=0.25;entryDx=0;entryDy=0;labelBackgroundColor=default;fontFamily=Helvetica;fontSize=11;fontColor=default;endArrow=classic;strokeColor=default;" parent="WIyWlLk6GJQsqaUBKTNV-1" source="WIyWlLk6GJQsqaUBKTNV-12" target="2Ez0OJCMwSesqM6kdLIF-23" edge="1">
          <mxGeometry relative="1" as="geometry" />
        </mxCell>
        <mxCell id="WIyWlLk6GJQsqaUBKTNV-12" value="Access to Backup server" style="rounded=0;whiteSpace=wrap;html=1;fontSize=12;glass=0;strokeWidth=1;shadow=0;fillColor=#f8cecc;strokeColor=#b85450;" parent="WIyWlLk6GJQsqaUBKTNV-1" vertex="1">
          <mxGeometry x="-380" y="-960" width="120" height="40" as="geometry" />
        </mxCell>
        <mxCell id="2Ez0OJCMwSesqM6kdLIF-1" value="" style="rounded=0;whiteSpace=wrap;html=1;fontSize=12;glass=0;strokeWidth=1;shadow=0;fillColor=#f8cecc;strokeColor=#b85450;" parent="WIyWlLk6GJQsqaUBKTNV-1" vertex="1">
          <mxGeometry x="-770" y="-1112.5" width="30" height="20" as="geometry" />
        </mxCell>
        <mxCell id="2Ez0OJCMwSesqM6kdLIF-2" value="&lt;font face=&quot;helvetica&quot;&gt;&lt;span style=&quot;background-color: rgb(255 , 255 , 255)&quot;&gt;Case Study Attack Vector&lt;/span&gt;&lt;/font&gt;" style="text;whiteSpace=wrap;html=1;align=left;rounded=0;" parent="WIyWlLk6GJQsqaUBKTNV-1" vertex="1">
          <mxGeometry x="-730" y="-1117.5" width="170" height="30" as="geometry" />
        </mxCell>
        <mxCell id="2Ez0OJCMwSesqM6kdLIF-3" value="" style="rounded=0;whiteSpace=wrap;html=1;fontSize=12;glass=0;strokeWidth=1;shadow=0;fillColor=#f5f5f5;strokeColor=#666666;fontColor=#333333;" parent="WIyWlLk6GJQsqaUBKTNV-1" vertex="1">
          <mxGeometry x="-770" y="-1080.5" width="30" height="20" as="geometry" />
        </mxCell>
        <mxCell id="2Ez0OJCMwSesqM6kdLIF-4" value="&lt;font face=&quot;helvetica&quot;&gt;&lt;span style=&quot;background-color: rgb(255 , 255 , 255)&quot;&gt;Potential alternate Attack Vector&lt;/span&gt;&lt;/font&gt;" style="text;whiteSpace=wrap;html=1;align=left;rounded=0;" parent="WIyWlLk6GJQsqaUBKTNV-1" vertex="1">
          <mxGeometry x="-730" y="-1085.5" width="230" height="30" as="geometry" />
        </mxCell>
        <mxCell id="2Ez0OJCMwSesqM6kdLIF-18" style="edgeStyle=elbowEdgeStyle;shape=connector;rounded=0;orthogonalLoop=1;jettySize=auto;html=1;entryX=0;entryY=0.5;entryDx=0;entryDy=0;labelBackgroundColor=default;fontFamily=Helvetica;fontSize=11;fontColor=default;endArrow=classic;strokeColor=default;" parent="WIyWlLk6GJQsqaUBKTNV-1" source="2Ez0OJCMwSesqM6kdLIF-5" target="WIyWlLk6GJQsqaUBKTNV-7" edge="1">
          <mxGeometry relative="1" as="geometry" />
        </mxCell>
        <mxCell id="2Ez0OJCMwSesqM6kdLIF-21" style="edgeStyle=elbowEdgeStyle;shape=connector;rounded=0;orthogonalLoop=1;jettySize=auto;html=1;labelBackgroundColor=default;fontFamily=Helvetica;fontSize=11;fontColor=default;endArrow=classic;strokeColor=default;" parent="WIyWlLk6GJQsqaUBKTNV-1" source="2Ez0OJCMwSesqM6kdLIF-5" target="2Ez0OJCMwSesqM6kdLIF-20" edge="1">
          <mxGeometry relative="1" as="geometry">
            <Array as="points">
              <mxPoint x="-610" y="-840" />
            </Array>
          </mxGeometry>
        </mxCell>
        <mxCell id="2Ez0OJCMwSesqM6kdLIF-22" style="edgeStyle=elbowEdgeStyle;shape=connector;rounded=0;orthogonalLoop=1;jettySize=auto;html=1;labelBackgroundColor=default;fontFamily=Helvetica;fontSize=11;fontColor=default;endArrow=classic;strokeColor=default;" parent="WIyWlLk6GJQsqaUBKTNV-1" source="2Ez0OJCMwSesqM6kdLIF-5" target="2Ez0OJCMwSesqM6kdLIF-19" edge="1">
          <mxGeometry relative="1" as="geometry" />
        </mxCell>
        <mxCell id="2Ez0OJCMwSesqM6kdLIF-5" value="Social Engineering via Phishing" style="rounded=0;whiteSpace=wrap;html=1;fontSize=12;glass=0;strokeWidth=1;shadow=0;fillColor=#f5f5f5;strokeColor=#666666;fontColor=#333333;" parent="WIyWlLk6GJQsqaUBKTNV-1" vertex="1">
          <mxGeometry x="-790" y="-890" width="130" height="40" as="geometry" />
        </mxCell>
        <mxCell id="2Ez0OJCMwSesqM6kdLIF-37" style="edgeStyle=elbowEdgeStyle;shape=connector;rounded=0;orthogonalLoop=1;jettySize=auto;html=1;labelBackgroundColor=default;fontFamily=Helvetica;fontSize=11;fontColor=default;endArrow=classic;strokeColor=default;" parent="WIyWlLk6GJQsqaUBKTNV-1" source="2Ez0OJCMwSesqM6kdLIF-12" target="2Ez0OJCMwSesqM6kdLIF-26" edge="1">
          <mxGeometry relative="1" as="geometry" />
        </mxCell>
        <mxCell id="2Ez0OJCMwSesqM6kdLIF-12" value="Acess to internal server farm" style="rounded=0;whiteSpace=wrap;html=1;fontSize=12;glass=0;strokeWidth=1;shadow=0;fillColor=#f8cecc;strokeColor=#b85450;" parent="WIyWlLk6GJQsqaUBKTNV-1" vertex="1">
          <mxGeometry x="-10" y="-960" width="120" height="40" as="geometry" />
        </mxCell>
        <mxCell id="2Ez0OJCMwSesqM6kdLIF-35" style="edgeStyle=elbowEdgeStyle;shape=connector;rounded=0;orthogonalLoop=1;jettySize=auto;html=1;entryX=0;entryY=0.5;entryDx=0;entryDy=0;labelBackgroundColor=default;fontFamily=Helvetica;fontSize=11;fontColor=default;endArrow=classic;strokeColor=#FF0000;" parent="WIyWlLk6GJQsqaUBKTNV-1" source="2Ez0OJCMwSesqM6kdLIF-13" target="2Ez0OJCMwSesqM6kdLIF-30" edge="1">
          <mxGeometry relative="1" as="geometry" />
        </mxCell>
        <mxCell id="2Ez0OJCMwSesqM6kdLIF-13" value="Elevate to administrator privileges" style="rounded=0;whiteSpace=wrap;html=1;fontSize=12;glass=0;strokeWidth=1;shadow=0;fillColor=#f8cecc;strokeColor=#b85450;" parent="WIyWlLk6GJQsqaUBKTNV-1" vertex="1">
          <mxGeometry x="170" y="-965" width="120" height="50" as="geometry" />
        </mxCell>
        <mxCell id="2Ez0OJCMwSesqM6kdLIF-15" value="DMZ" style="text;html=1;resizable=0;autosize=1;align=left;verticalAlign=middle;points=[];fillColor=none;strokeColor=none;rounded=0;fontStyle=3" parent="WIyWlLk6GJQsqaUBKTNV-1" vertex="1">
          <mxGeometry x="-580" y="-1000" width="40" height="20" as="geometry" />
        </mxCell>
        <mxCell id="2Ez0OJCMwSesqM6kdLIF-19" value="Other DMZ vulnerabilities (e.g misconfigured port)" style="rounded=0;whiteSpace=wrap;html=1;fontSize=12;glass=0;strokeWidth=1;shadow=0;fillColor=#f5f5f5;strokeColor=#666666;fontColor=#333333;" parent="WIyWlLk6GJQsqaUBKTNV-1" vertex="1">
          <mxGeometry x="-560" y="-900" width="120" height="60" as="geometry" />
        </mxCell>
        <mxCell id="2Ez0OJCMwSesqM6kdLIF-51" style="edgeStyle=elbowEdgeStyle;shape=connector;rounded=0;orthogonalLoop=1;jettySize=auto;html=1;exitX=1;exitY=0.75;exitDx=0;exitDy=0;entryX=0;entryY=0.75;entryDx=0;entryDy=0;labelBackgroundColor=default;fontFamily=Helvetica;fontSize=11;fontColor=default;endArrow=classic;strokeColor=default;" parent="WIyWlLk6GJQsqaUBKTNV-1" source="2Ez0OJCMwSesqM6kdLIF-20" target="2Ez0OJCMwSesqM6kdLIF-23" edge="1">
          <mxGeometry relative="1" as="geometry" />
        </mxCell>
        <mxCell id="2Ez0OJCMwSesqM6kdLIF-20" value="Honeypot" style="rounded=0;whiteSpace=wrap;html=1;fontSize=12;glass=0;strokeWidth=1;shadow=0;fillColor=#f5f5f5;strokeColor=#82B366;fontColor=#333333;" parent="WIyWlLk6GJQsqaUBKTNV-1" vertex="1">
          <mxGeometry x="-474" y="-820" width="120" height="40" as="geometry" />
        </mxCell>
        <mxCell id="2Ez0OJCMwSesqM6kdLIF-23" value="IPS Alert and containment" style="rounded=0;whiteSpace=wrap;html=1;fontSize=12;glass=0;strokeWidth=1;shadow=0;fillColor=#d5e8d4;strokeColor=#82b366;" parent="WIyWlLk6GJQsqaUBKTNV-1" vertex="1">
          <mxGeometry x="-190" y="-820" width="120" height="40" as="geometry" />
        </mxCell>
        <mxCell id="2Ez0OJCMwSesqM6kdLIF-26" value="Improved password authentication policies" style="rounded=0;whiteSpace=wrap;html=1;fontSize=12;glass=0;strokeWidth=1;shadow=0;fillColor=#d5e8d4;strokeColor=#82b366;" parent="WIyWlLk6GJQsqaUBKTNV-1" vertex="1">
          <mxGeometry x="170" y="-895" width="120" height="50" as="geometry" />
        </mxCell>
        <mxCell id="2Ez0OJCMwSesqM6kdLIF-27" value="" style="rounded=0;whiteSpace=wrap;html=1;fontSize=12;glass=0;strokeWidth=1;shadow=0;fillColor=#d5e8d4;strokeColor=#82b366;" parent="WIyWlLk6GJQsqaUBKTNV-1" vertex="1">
          <mxGeometry x="-770" y="-1045" width="30" height="20" as="geometry" />
        </mxCell>
        <mxCell id="2Ez0OJCMwSesqM6kdLIF-28" value="&lt;font face=&quot;helvetica&quot;&gt;&lt;span style=&quot;background-color: rgb(255 , 255 , 255)&quot;&gt;Attack interrupted&lt;/span&gt;&lt;/font&gt;" style="text;whiteSpace=wrap;html=1;align=left;rounded=0;" parent="WIyWlLk6GJQsqaUBKTNV-1" vertex="1">
          <mxGeometry x="-730" y="-1050" width="230" height="30" as="geometry" />
        </mxCell>
        <mxCell id="2Ez0OJCMwSesqM6kdLIF-33" style="edgeStyle=elbowEdgeStyle;shape=connector;rounded=0;orthogonalLoop=1;jettySize=auto;html=1;entryX=0;entryY=0.5;entryDx=0;entryDy=0;labelBackgroundColor=default;fontFamily=Helvetica;fontSize=11;fontColor=default;endArrow=classic;strokeColor=default;" parent="WIyWlLk6GJQsqaUBKTNV-1" source="2Ez0OJCMwSesqM6kdLIF-30" target="2Ez0OJCMwSesqM6kdLIF-32" edge="1">
          <mxGeometry relative="1" as="geometry" />
        </mxCell>
        <mxCell id="2Ez0OJCMwSesqM6kdLIF-34" style="edgeStyle=elbowEdgeStyle;shape=connector;rounded=0;orthogonalLoop=1;jettySize=auto;html=1;labelBackgroundColor=default;fontFamily=Helvetica;fontSize=11;fontColor=default;endArrow=classic;strokeColor=#FF0000;" parent="WIyWlLk6GJQsqaUBKTNV-1" source="2Ez0OJCMwSesqM6kdLIF-30" target="2Ez0OJCMwSesqM6kdLIF-31" edge="1">
          <mxGeometry relative="1" as="geometry" />
        </mxCell>
        <mxCell id="2Ez0OJCMwSesqM6kdLIF-45" style="edgeStyle=elbowEdgeStyle;shape=connector;rounded=0;orthogonalLoop=1;jettySize=auto;html=1;entryX=0.5;entryY=0;entryDx=0;entryDy=0;labelBackgroundColor=default;fontFamily=Helvetica;fontSize=11;fontColor=default;endArrow=classic;strokeColor=default;" parent="WIyWlLk6GJQsqaUBKTNV-1" source="2Ez0OJCMwSesqM6kdLIF-30" target="2Ez0OJCMwSesqM6kdLIF-42" edge="1">
          <mxGeometry relative="1" as="geometry" />
        </mxCell>
        <mxCell id="2Ez0OJCMwSesqM6kdLIF-30" value="Ransomware deployed to servers&amp;nbsp;" style="rounded=0;whiteSpace=wrap;html=1;fontSize=12;glass=0;strokeWidth=1;shadow=0;fillColor=#f8cecc;strokeColor=#b85450;" parent="WIyWlLk6GJQsqaUBKTNV-1" vertex="1">
          <mxGeometry x="330" y="-965" width="120" height="50" as="geometry" />
        </mxCell>
        <mxCell id="2Ez0OJCMwSesqM6kdLIF-63" style="edgeStyle=elbowEdgeStyle;shape=connector;rounded=0;orthogonalLoop=1;jettySize=auto;html=1;exitX=1;exitY=0.5;exitDx=0;exitDy=0;labelBackgroundColor=default;fontFamily=Helvetica;fontSize=11;fontColor=default;endArrow=classic;strokeColor=#FF0000;" parent="WIyWlLk6GJQsqaUBKTNV-1" source="2Ez0OJCMwSesqM6kdLIF-31" target="2Ez0OJCMwSesqM6kdLIF-62" edge="1">
          <mxGeometry relative="1" as="geometry" />
        </mxCell>
        <mxCell id="2Ez0OJCMwSesqM6kdLIF-31" value="Ransomware spread to connected devices" style="rounded=0;whiteSpace=wrap;html=1;fontSize=12;glass=0;strokeWidth=1;shadow=0;fillColor=#f8cecc;strokeColor=#b85450;" parent="WIyWlLk6GJQsqaUBKTNV-1" vertex="1">
          <mxGeometry x="493" y="-965" width="120" height="50" as="geometry" />
        </mxCell>
        <mxCell id="2Ez0OJCMwSesqM6kdLIF-32" value="Anti-virus and &lt;br&gt;anti-malware protects end points&amp;nbsp;" style="rounded=0;whiteSpace=wrap;html=1;fontSize=12;glass=0;strokeWidth=1;shadow=0;fillColor=#F5F5F5;strokeColor=#82B366;" parent="WIyWlLk6GJQsqaUBKTNV-1" vertex="1">
          <mxGeometry x="493" y="-895" width="120" height="60" as="geometry" />
        </mxCell>
        <mxCell id="2Ez0OJCMwSesqM6kdLIF-41" style="edgeStyle=elbowEdgeStyle;shape=connector;rounded=0;orthogonalLoop=1;jettySize=auto;html=1;labelBackgroundColor=default;fontFamily=Helvetica;fontSize=11;fontColor=default;endArrow=classic;strokeColor=default;" parent="WIyWlLk6GJQsqaUBKTNV-1" source="2Ez0OJCMwSesqM6kdLIF-39" target="2Ez0OJCMwSesqM6kdLIF-12" edge="1">
          <mxGeometry relative="1" as="geometry" />
        </mxCell>
        <mxCell id="2Ez0OJCMwSesqM6kdLIF-39" value="IDS" style="rounded=0;whiteSpace=wrap;html=1;fontSize=12;glass=0;strokeWidth=1;shadow=0;fillColor=#f5f5f5;strokeColor=#666666;fontColor=#333333;" parent="WIyWlLk6GJQsqaUBKTNV-1" vertex="1">
          <mxGeometry x="-190" y="-920" width="120" height="40" as="geometry" />
        </mxCell>
        <mxCell id="2Ez0OJCMwSesqM6kdLIF-42" value="Sucessful restoration of cloud backup" style="rounded=0;whiteSpace=wrap;html=1;fontSize=12;glass=0;strokeWidth=1;shadow=0;fillColor=#F5F5F5;strokeColor=#82b366;" parent="WIyWlLk6GJQsqaUBKTNV-1" vertex="1">
          <mxGeometry x="330" y="-895" width="120" height="50" as="geometry" />
        </mxCell>
        <mxCell id="2Ez0OJCMwSesqM6kdLIF-47" value="Server Hardening" style="rounded=0;whiteSpace=wrap;html=1;fontSize=12;glass=0;strokeWidth=1;shadow=0;fillColor=#F5F5F5;strokeColor=#82b366;" parent="WIyWlLk6GJQsqaUBKTNV-1" vertex="1">
          <mxGeometry x="-10" y="-890" width="120" height="40" as="geometry" />
        </mxCell>
        <mxCell id="2Ez0OJCMwSesqM6kdLIF-57" value="Security Team are &lt;br&gt;notified of an incident" style="text;html=1;resizable=0;autosize=1;align=left;verticalAlign=middle;points=[];fillColor=none;strokeColor=none;rounded=0;fontStyle=3" parent="WIyWlLk6GJQsqaUBKTNV-1" vertex="1">
          <mxGeometry x="-200" y="-995" width="140" height="30" as="geometry" />
        </mxCell>
        <mxCell id="2Ez0OJCMwSesqM6kdLIF-62" value="&lt;b&gt;&lt;i&gt;Security Team are notified of the incident&lt;/i&gt;&lt;/b&gt;" style="whiteSpace=wrap;html=1;fillColor=none;dashed=1;strokeColor=#CC0000;strokeWidth=2;opacity=50;" parent="WIyWlLk6GJQsqaUBKTNV-1" vertex="1">
          <mxGeometry x="650" y="-965" width="130" height="50" as="geometry" />
        </mxCell>
        <mxCell id="2Ez0OJCMwSesqM6kdLIF-64" style="edgeStyle=elbowEdgeStyle;shape=connector;rounded=0;orthogonalLoop=1;jettySize=auto;html=1;entryX=0.5;entryY=1;entryDx=0;entryDy=0;labelBackgroundColor=default;fontFamily=Helvetica;fontSize=11;fontColor=default;endArrow=classic;strokeColor=default;" parent="WIyWlLk6GJQsqaUBKTNV-1" source="2Ez0OJCMwSesqM6kdLIF-39" target="2Ez0OJCMwSesqM6kdLIF-39" edge="1">
          <mxGeometry relative="1" as="geometry" />
        </mxCell>
        <mxCell id="2Ez0OJCMwSesqM6kdLIF-65" value="Legend" style="text;html=1;resizable=0;autosize=1;align=left;verticalAlign=middle;points=[];fillColor=none;strokeColor=none;rounded=0;fontStyle=3" parent="WIyWlLk6GJQsqaUBKTNV-1" vertex="1">
          <mxGeometry x="-770" y="-1150" width="60" height="20" as="geometry" />
        </mxCell>
        <mxCell id="2Ez0OJCMwSesqM6kdLIF-66" value="Server Hardening" style="rounded=0;whiteSpace=wrap;html=1;fontSize=12;glass=0;strokeWidth=1;shadow=0;fillColor=#F5F5F5;strokeColor=#82b366;" parent="WIyWlLk6GJQsqaUBKTNV-1" vertex="1">
          <mxGeometry x="-380" y="-890" width="120" height="40" as="geometry" />
        </mxCell>
        <mxCell id="2Ez0OJCMwSesqM6kdLIF-67" style="edgeStyle=elbowEdgeStyle;shape=connector;rounded=0;orthogonalLoop=1;jettySize=auto;html=1;labelBackgroundColor=default;fontFamily=Helvetica;fontSize=11;fontColor=default;endArrow=none;strokeColor=default;endFill=0;startArrow=oval;startFill=0;" parent="WIyWlLk6GJQsqaUBKTNV-1" source="2Ez0OJCMwSesqM6kdLIF-19" target="2Ez0OJCMwSesqM6kdLIF-66" edge="1">
          <mxGeometry relative="1" as="geometry" />
        </mxCell>
        <mxCell id="qosPAv3kta5eRP6_lkoC-2" style="edgeStyle=elbowEdgeStyle;shape=connector;rounded=0;orthogonalLoop=1;jettySize=auto;html=1;labelBackgroundColor=default;fontFamily=Helvetica;fontSize=11;fontColor=default;startArrow=oval;startFill=0;endArrow=none;endFill=0;strokeColor=default;" edge="1" parent="WIyWlLk6GJQsqaUBKTNV-1" source="2Ez0OJCMwSesqM6kdLIF-12" target="2Ez0OJCMwSesqM6kdLIF-47">
          <mxGeometry relative="1" as="geometry" />
        </mxCell>
        <mxCell id="2Ez0OJCMwSesqM6kdLIF-6" style="edgeStyle=none;rounded=0;orthogonalLoop=1;jettySize=auto;html=1;strokeColor=#FF0000;" parent="WIyWlLk6GJQsqaUBKTNV-1" source="WIyWlLk6GJQsqaUBKTNV-3" target="WIyWlLk6GJQsqaUBKTNV-7" edge="1">
          <mxGeometry relative="1" as="geometry" />
        </mxCell>
        <mxCell id="2Ez0OJCMwSesqM6kdLIF-16" style="edgeStyle=none;shape=connector;rounded=0;orthogonalLoop=1;jettySize=auto;html=1;labelBackgroundColor=default;fontFamily=Helvetica;fontSize=11;fontColor=default;endArrow=classic;strokeColor=#FF0000;" parent="WIyWlLk6GJQsqaUBKTNV-1" source="WIyWlLk6GJQsqaUBKTNV-12" target="2Ez0OJCMwSesqM6kdLIF-12" edge="1">
          <mxGeometry relative="1" as="geometry" />
        </mxCell>
        <mxCell id="2Ez0OJCMwSesqM6kdLIF-17" style="edgeStyle=none;shape=connector;rounded=0;orthogonalLoop=1;jettySize=auto;html=1;labelBackgroundColor=default;fontFamily=Helvetica;fontSize=11;fontColor=default;endArrow=classic;strokeColor=#FF0000;" parent="WIyWlLk6GJQsqaUBKTNV-1" source="2Ez0OJCMwSesqM6kdLIF-12" target="2Ez0OJCMwSesqM6kdLIF-13" edge="1">
          <mxGeometry relative="1" as="geometry" />
        </mxCell>
        <mxCell id="qosPAv3kta5eRP6_lkoC-6" value="Incident response team engaged" style="rounded=0;whiteSpace=wrap;html=1;fontSize=12;glass=0;strokeWidth=1;shadow=0;fillColor=#F5F5F5;strokeColor=#82b366;" vertex="1" parent="WIyWlLk6GJQsqaUBKTNV-1">
          <mxGeometry x="-190" y="-870" width="120" height="40" as="geometry" />
        </mxCell>
        <mxCell id="qosPAv3kta5eRP6_lkoC-8" style="edgeStyle=elbowEdgeStyle;shape=connector;rounded=0;orthogonalLoop=1;jettySize=auto;html=1;exitX=0.5;exitY=1;exitDx=0;exitDy=0;entryX=0.5;entryY=0;entryDx=0;entryDy=0;labelBackgroundColor=default;fontFamily=Helvetica;fontSize=11;fontColor=default;startArrow=oval;startFill=0;endArrow=none;endFill=0;strokeColor=default;" edge="1" parent="WIyWlLk6GJQsqaUBKTNV-1" source="2Ez0OJCMwSesqM6kdLIF-39" target="qosPAv3kta5eRP6_lkoC-6">
          <mxGeometry relative="1" as="geometry" />
        </mxCell>
        <mxCell id="qosPAv3kta5eRP6_lkoC-9" style="edgeStyle=elbowEdgeStyle;shape=connector;rounded=0;orthogonalLoop=1;jettySize=auto;html=1;exitX=0.5;exitY=0;exitDx=0;exitDy=0;entryX=0.5;entryY=1;entryDx=0;entryDy=0;labelBackgroundColor=default;fontFamily=Helvetica;fontSize=11;fontColor=default;startArrow=oval;startFill=0;endArrow=none;endFill=0;strokeColor=default;" edge="1" parent="WIyWlLk6GJQsqaUBKTNV-1" source="2Ez0OJCMwSesqM6kdLIF-23" target="qosPAv3kta5eRP6_lkoC-6">
          <mxGeometry relative="1" as="geometry" />
        </mxCell>
        <mxCell id="qosPAv3kta5eRP6_lkoC-11" value="Subnetting &amp;amp; Zero trust policy reduces # of impacted devices" style="rounded=0;whiteSpace=wrap;html=1;fontSize=12;glass=0;strokeWidth=1;shadow=0;fillColor=#F5F5F5;strokeColor=#82b366;" vertex="1" parent="WIyWlLk6GJQsqaUBKTNV-1">
          <mxGeometry x="493" y="-1040" width="120" height="60" as="geometry" />
        </mxCell>
        <mxCell id="qosPAv3kta5eRP6_lkoC-12" style="edgeStyle=elbowEdgeStyle;shape=connector;rounded=0;orthogonalLoop=1;jettySize=auto;html=1;exitX=0.5;exitY=0;exitDx=0;exitDy=0;entryX=0.5;entryY=1;entryDx=0;entryDy=0;labelBackgroundColor=default;fontFamily=Helvetica;fontSize=11;fontColor=default;startArrow=oval;startFill=0;endArrow=none;endFill=0;strokeColor=default;" edge="1" parent="WIyWlLk6GJQsqaUBKTNV-1" source="2Ez0OJCMwSesqM6kdLIF-31" target="qosPAv3kta5eRP6_lkoC-11">
          <mxGeometry relative="1" as="geometry" />
        </mxCell>
        <mxCell id="qosPAv3kta5eRP6_lkoC-15" value="" style="shape=flexArrow;endArrow=classic;html=1;rounded=0;dashed=1;dashPattern=1 1;labelBackgroundColor=default;fontFamily=Helvetica;fontSize=11;fontColor=default;strokeColor=default;" edge="1" parent="WIyWlLk6GJQsqaUBKTNV-1">
          <mxGeometry width="50" height="50" relative="1" as="geometry">
            <mxPoint x="-790" y="-720" as="sourcePoint" />
            <mxPoint x="770" y="-722" as="targetPoint" />
          </mxGeometry>
        </mxCell>
        <mxCell id="qosPAv3kta5eRP6_lkoC-16" value="Timeline of events" style="text;html=1;resizable=0;autosize=1;align=left;verticalAlign=middle;points=[];fillColor=none;strokeColor=none;rounded=0;fontStyle=3" vertex="1" parent="WIyWlLk6GJQsqaUBKTNV-1">
          <mxGeometry x="-790" y="-750" width="120" height="20" as="geometry" />
        </mxCell>
      </root>
    </mxGraphModel>
  </diagram>
</mxfile>
